<?xml version="1.0" encoding="utf-8"?>
<!-- Generator: Adobe Illustrator 27.4.0, SVG Export Plug-In . SVG Version: 6.00 Build 0)  -->
<svg version="1.1" id="Layer_1" xmlns="http://www.w3.org/2000/svg" xmlns:xlink="http://www.w3.org/1999/xlink" x="0px" y="0px"
	 viewBox="0 0 400 100" style="enable-background:new 0 0 400 100;" xml:space="preserve">
<style type="text/css">
	.st0{fill:url(#SVGID_1_);}
	.st1{fill:#414042;}
</style>
<g>
	
		<linearGradient id="SVGID_1_" gradientUnits="userSpaceOnUse" x1="290.902" y1="117.389" x2="116.4555" y2="-4.7598" gradientTransform="matrix(0.9962 0.0872 0.0872 -0.9962 -3.808 70.5044)">
		<stop  offset="0" style="stop-color:#FD6058"/>
		<stop  offset="0.5" style="stop-color:#FD3B5E"/>
		<stop  offset="1" style="stop-color:#930EA3"/>
	</linearGradient>
	<path class="st0" d="M173.68,0.72c-0.47-0.04-0.95-0.05-1.43-0.05h-1.16c-7.51,0-12.81,4.21-14.92,11.87l-0.64,2.27l-1.08-3.62
		c0-0.01-0.01-0.04-0.01-0.05c-2.46-7.9-8.1-10-12.41-10.38c-0.56-0.05-1.15-0.08-1.75-0.08h-3.3c-7.78,0-12.8,3.57-14.9,10.62
		l-1.51,5.03l-1.81-5.46c-1.97-6-6.32-9.6-12.27-10.12c-0.49-0.04-0.99-0.07-1.5-0.07h-4.64c-8.29,0-14.08,5.5-14.08,13.36
		c0,2.57,0.48,5.11,1.76,9.36l12.21,40.73c2.19,7.39,7.15,11.81,13.96,12.41c0.51,0.04,1.03,0.07,1.55,0.07h6.15
		c3.88,0,6.95-1.11,9.41-3.4c1.86-1.72,3.26-4,4.47-7.31c1.44,4.41,4.41,9.89,12.68,10.62c0.63,0.05,1.28,0.08,1.97,0.08h6.69
		c3.94,0,7.19-1.19,9.67-3.54c2.57-2.43,3.81-5.72,4.53-8.08c0.28,0.31,0.56,0.6,0.86,0.9c0.01,0.01,0.01,0.01,0.03,0.03
		c6.27,6.19,14.07,9.73,23.16,10.52c1.3,0.11,2.62,0.17,3.97,0.17h1.78c10.8,0,19.92-3.6,27.12-10.7c0.01-0.01,0.01-0.01,0.03-0.03
		c0.23-0.23,0.45-0.48,0.68-0.72c2.34,6.78,7.14,10.8,13.63,11.37c0.51,0.04,1.03,0.07,1.55,0.07h6.15c3.88,0,6.95-1.11,9.41-3.4
		c1.86-1.72,3.26-4,4.47-7.31c1.44,4.41,4.41,9.89,12.68,10.62c0.63,0.05,1.28,0.08,1.97,0.08h6.69c3.94,0,7.19-1.19,9.67-3.54
		c2.65-2.51,3.89-5.94,4.6-8.3l12.82-42.21c1.15-3.66,1.6-6.06,1.6-8.5c0-3.54-1.08-6.66-3.14-9.03c-2.15-2.47-5.23-3.96-8.87-4.28
		l0,0c-0.49-0.04-1.02-0.07-1.54-0.07h-1.16c-7.51,0-12.82,4.21-14.92,11.87l-0.64,2.27l-1.08-3.62c0-0.01-0.01-0.04-0.01-0.05
		c-2.46-7.9-8.1-10-12.41-10.38c-0.56-0.05-1.15-0.08-1.75-0.08h-3.3c-7.78,0-12.8,3.57-14.9,10.62l-1.51,5.03l-1.81-5.46
		c-1.97-6-6.32-9.6-12.27-10.12c-0.49-0.04-0.99-0.07-1.5-0.07h-4.64c-4.17,0-7.72,1.4-10.2,3.8c-4.08-1.98-8.57-3.2-13.42-3.62l0,0
		c-1.3-0.11-2.62-0.17-3.97-0.17h-1.78c-6.35,0-12.11,1.26-17.25,3.72c-2.07-2.06-4.84-3.3-8.08-3.62L173.68,0.72z M165.74,63.06
		c-1.51,5.08-3.65,7.66-8.65,7.66h-6.69c-0.51,0-1-0.01-1.46-0.05c-4.41-0.39-6.44-2.65-7.81-7.25l-5.08-16.94l-5.52,16.58
		c-1.78,5.35-3.92,7.66-8.65,7.66h-6.15c-0.36,0-0.71-0.01-1.04-0.04c-4.79-0.41-7.51-3.74-8.85-8.25L93.63,21.69
		c-1.16-3.84-1.51-5.79-1.51-7.66c0-4.64,3.12-7.49,8.2-7.49h4.64c0.33,0,0.67,0.01,0.99,0.04c3.56,0.31,5.99,2.35,7.21,6.11
		l7.66,23.09l6.86-22.82c1.24-4.19,3.65-6.42,9.27-6.42h3.3c0.43,0,0.84,0.01,1.24,0.05c4.15,0.36,6.18,2.61,7.31,6.27l6.86,22.9
		l6.15-21.66c1.24-4.55,3.92-7.58,9.27-7.58h1.16c0.33,0,0.66,0.01,0.98,0.04l0.08,0.01c4.32,0.39,6.62,3.22,6.62,7.43
		c0,1.78-0.36,3.65-1.34,6.78L165.74,63.06z M224.09,61.72c-6.42,6.32-14.35,9-23,9h-1.78c-1.16,0-2.31-0.05-3.45-0.15
		c-7.3-0.64-13.99-3.38-19.55-8.85c-1.08-1.08-2.07-2.27-2.96-3.53l10.83-35.65c1.15-3.66,1.6-6.06,1.6-8.5
		c0-1.63-0.23-3.16-0.68-4.57c4.39-2.01,9.17-2.91,14.2-2.91h1.78c1.16,0,2.31,0.05,3.45,0.15c7.3,0.64,13.99,3.38,19.55,8.85
		c5.71,5.71,8.65,14,8.65,22.73v0.71C232.73,47.72,229.79,56.01,224.09,61.72z M306.94,20.81L294.1,63.06
		c-1.51,5.08-3.65,7.66-8.65,7.66h-6.69c-0.51,0-1-0.01-1.46-0.05c-4.41-0.39-6.44-2.65-7.81-7.25l-5.08-16.94l-5.52,16.58
		c-1.78,5.35-3.92,7.66-8.65,7.66h-6.15c-0.36,0-0.71-0.01-1.04-0.04c-4.79-0.41-7.51-3.74-8.85-8.25l-0.92-3.08
		c3.46-5.82,5.32-12.81,5.32-20.36v-0.71c0-10.66-3.68-20.2-10.36-26.89c-0.01-0.01-0.01-0.01-0.03-0.03
		c-1.38-1.35-2.82-2.58-4.35-3.68c1.28-0.75,2.91-1.15,4.81-1.15h4.64c0.33,0,0.67,0.01,0.99,0.04c3.56,0.31,5.99,2.35,7.21,6.11
		l7.66,23.09l6.86-22.82c1.24-4.19,3.65-6.42,9.27-6.42h3.3c0.43,0,0.84,0.01,1.24,0.05c4.15,0.36,6.18,2.61,7.31,6.27l6.86,22.9
		l6.15-21.66c1.24-4.55,3.92-7.58,9.27-7.58h1.16c0.35,0,0.7,0.01,1.02,0.04c4.33,0.37,6.65,3.22,6.65,7.45
		C308.28,15.81,307.93,17.68,306.94,20.81z M210,36.93c0-4.28-0.53-8.02-2.31-10.52c-1.47-2.1-3.77-3.12-6.34-3.34
		c-0.37-0.03-0.76-0.05-1.15-0.05c-3.04,0-5.79,0.9-7.49,3.38c-1.7,2.5-2.31,6.24-2.31,10.52v3.38c0,4.28,0.53,8.02,2.31,10.52
		c1.47,2.1,3.77,3.12,6.34,3.34c0.37,0.03,0.76,0.05,1.15,0.05c3.04,0,5.79-0.98,7.49-3.38c1.78-2.5,2.31-6.24,2.31-10.52V36.93z
		 M202.91,47.43c-0.01,0.01-0.01,0.03-0.03,0.04c-0.52,0.74-1.75,0.9-2.69,0.9c-0.21,0-0.43-0.01-0.64-0.03
		c-1.54-0.13-1.93-0.68-2.05-0.87c-0.01-0.01-0.01-0.03-0.03-0.04c-0.45-0.64-1.23-2.42-1.23-7.1v-3.38c0-4.79,0.91-6.65,1.31-7.22
		c0.36-0.53,1.24-0.82,2.63-0.82c0.21,0,0.43,0.01,0.64,0.03c1.54,0.13,1.93,0.68,2.05,0.87c0.01,0.01,0.01,0.03,0.03,0.04
		c0.45,0.64,1.23,2.41,1.23,7.1v3.38C204.13,45.01,203.37,46.79,202.91,47.43z"/>
</g>
<g>
	<path class="st1" d="M148.53,84.73c1.14,0,1.9,0.79,1.9,1.93c0,1.14-0.76,1.93-1.9,1.93h-2.89v8.26c0,2.02-0.71,2.77-2.38,2.77
		h-0.43c-1.67,0-2.38-0.75-2.38-2.77v-8.26h-2.89c-1.14,0-1.9-0.79-1.9-1.93c0-1.14,0.76-1.93,1.9-1.93H148.53z"/>
	<path class="st1" d="M157.4,87.5c0-2.02,0.71-2.77,2.38-2.77h0.43c1.67,0,2.38,0.75,2.38,2.77v9.33c0,2.02-0.71,2.77-2.38,2.77
		h-0.43c-1.67,0-2.38-0.75-2.38-2.77V87.5z"/>
	<path class="st1" d="M177.24,99.62c-2.01,0-3.86-0.62-5.31-2.15c-1.32-1.4-1.89-3.16-1.89-5.2V92.1c0-2.01,0.53-3.78,1.89-5.2
		c1.43-1.51,3.3-2.15,5.31-2.15h0.43c3.8,0,5.46,2.27,5.46,4.05c0,1.32-0.76,2.09-1.93,2.09c-1.2,0-1.59-0.48-2.01-1.22
		c-0.45-0.8-1.06-1.1-1.93-1.1c-0.71,0-1.34,0.23-1.75,0.79s-0.53,1.47-0.53,2.43v0.79c0,1.02,0.16,1.9,0.53,2.43
		c0.43,0.62,1.03,0.79,1.74,0.79c0.88,0,1.48-0.25,1.93-1.1c0.37-0.72,0.83-1.22,2.01-1.22c1.18,0,1.93,0.8,1.93,2.09
		c0,1.82-1.63,4.05-5.43,4.05h-0.44V99.62z"/>
	<path class="st1" d="M203.35,96.37c0.43,0.76,0.71,1.3,0.71,1.89c0,0.6-0.29,1.36-1.74,1.36h-1.28c-1.3,0-1.66-0.2-2.25-1.28
		l-1.89-3.41l-0.95,1.22v0.71c0,2.02-0.71,2.77-2.38,2.77h-0.43c-1.67,0-2.38-0.75-2.38-2.77v-9.33c0-2.02,0.71-2.77,2.38-2.77h0.43
		c1.67,0,2.38,0.75,2.38,2.77v3.7l3.98-5.54c0.48-0.66,1.03-0.94,1.94-0.94h0.39c1.36,0,1.93,0.52,1.93,1.3
		c0,0.45-0.19,0.94-0.57,1.48l-2.97,4.1L203.35,96.37z"/>
	<path class="st1" d="M221.1,95.79c1.14,0,1.9,0.79,1.9,1.93s-0.76,1.9-1.9,1.9h-7.29c-1.67,0-2.38-0.75-2.38-2.77v-9.33
		c0-2.02,0.71-2.77,2.38-2.77h7.29c1.14,0,1.9,0.76,1.9,1.9c0,1.14-0.76,1.93-1.9,1.93h-4.48v2.01h1.79c0.98,0,1.62,0.64,1.62,1.62
		c0,0.98-0.64,1.63-1.62,1.63h-1.79v1.98h4.48V95.79z"/>
	<path class="st1" d="M242.58,84.73c1.14,0,1.9,0.79,1.9,1.93c0,1.14-0.76,1.93-1.9,1.93h-2.89v8.26c0,2.02-0.71,2.77-2.38,2.77
		h-0.43c-1.67,0-2.38-0.75-2.38-2.77v-8.26h-2.89c-1.14,0-1.9-0.79-1.9-1.93c0-1.14,0.76-1.93,1.9-1.93H242.58z"/>
	<path class="st1" d="M256.76,99.62c-3.42,0-5.8-1.59-5.8-3.48c0-0.94,0.71-1.63,1.9-1.63c1.71,0,1.93,1.62,5.04,1.62
		c1.02,0,1.67-0.2,1.67-0.8c0-0.56-0.57-0.83-1.67-0.91c-1.2-0.08-2.46-0.29-3.72-0.72c-1.67-0.57-3.14-1.79-3.14-4.05
		c0-2.38,1.83-4.89,5.83-4.89h1.93c2.93,0,5.04,1.3,5.04,2.91c0,0.91-0.68,1.74-2.07,1.74c-1.85,0-2.13-1.16-4.2-1.16
		c-0.87,0-1.48,0.25-1.48,0.84c0,0.64,0.71,0.84,1.63,0.92c1.26,0.12,2.58,0.33,3.82,0.75c1.71,0.57,3.21,1.63,3.21,3.97
		c0,2.7-2.09,4.89-5.88,4.89H256.76z"/>
</g>
</svg>
