<?xml version="1.0" encoding="utf-8"?>
<!-- Generator: Adobe Illustrator 27.4.0, SVG Export Plug-In . SVG Version: 6.00 Build 0)  -->
<svg version="1.1" id="Layer_1" xmlns="http://www.w3.org/2000/svg" xmlns:xlink="http://www.w3.org/1999/xlink" x="0px" y="0px"
	 viewBox="0 0 250 150" style="enable-background:new 0 0 250 150;" xml:space="preserve">
<style type="text/css">
	.st0{fill:url(#SVGID_1_);}
	.st1{fill:#414042;}
</style>
<g>
	<g>
		
			<linearGradient id="SVGID_1_" gradientUnits="userSpaceOnUse" x1="223.962" y1="0.1634" x2="33.3724" y2="133.6157" gradientTransform="matrix(0.9962 0.0872 -0.0872 0.9962 6.8052 -22.4815)">
			<stop  offset="0" style="stop-color:#FD6058"/>
			<stop  offset="0.5" style="stop-color:#FD3B5E"/>
			<stop  offset="1" style="stop-color:#930EA3"/>
		</linearGradient>
		<path class="st0" d="M96.03,21.01c-0.51-0.04-1.04-0.06-1.57-0.06l-1.27,0c-8.21,0-14,4.6-16.31,12.97l-0.71,2.49L75,32.44
			c-0.01-0.02-0.01-0.04-0.02-0.06c-2.68-8.63-8.86-10.93-13.56-11.34c-0.62-0.05-1.26-0.08-1.91-0.08l-3.6,0
			c-8.51,0-13.99,3.9-16.28,11.6l-1.65,5.49l-1.98-5.96c-2.15-6.56-6.91-10.49-13.41-11.06c-0.53-0.05-1.09-0.07-1.64-0.07l-5.06,0
			c-9.05,0-15.38,6-15.38,14.6c0,2.81,0.52,5.58,1.93,10.23l13.34,44.49c2.4,8.08,7.82,12.91,15.26,13.56
			c0.55,0.05,1.13,0.07,1.7,0.07h6.72c4.23,0,7.59-1.21,10.29-3.7c2.03-1.88,3.56-4.37,4.87-7.99c1.58,4.83,4.83,10.81,13.85,11.6
			c0.68,0.06,1.41,0.09,2.15,0.09l7.3,0c4.31,0,7.86-1.3,10.57-3.87c2.8-2.66,4.16-6.26,4.95-8.82c0.31,0.33,0.62,0.66,0.94,0.98
			c0.01,0.01,0.02,0.02,0.03,0.03c6.86,6.76,15.37,10.63,25.3,11.5c1.41,0.12,2.87,0.19,4.33,0.19l1.95,0
			c11.8,0,21.77-3.93,29.63-11.68c0.01-0.01,0.02-0.02,0.03-0.03c0.25-0.25,0.49-0.52,0.74-0.78c2.55,7.4,7.81,11.8,14.89,12.42
			c0.55,0.05,1.13,0.07,1.7,0.07l6.72,0c4.23,0,7.59-1.21,10.29-3.7c2.03-1.88,3.56-4.37,4.87-7.99c1.58,4.83,4.83,10.81,13.85,11.6
			c0.68,0.06,1.41,0.09,2.15,0.09h7.3c4.31,0,7.86-1.3,10.57-3.87c2.89-2.75,4.25-6.49,5.02-9.07l14.01-46.12
			c1.26-4,1.75-6.61,1.75-9.29c0-3.87-1.19-7.28-3.43-9.86c-2.36-2.71-5.71-4.32-9.68-4.67l0,0c-0.54-0.05-1.11-0.07-1.67-0.07
			l-1.27,0c-8.21,0-14,4.61-16.31,12.97l-0.71,2.48l-1.19-3.96c-0.01-0.02-0.01-0.04-0.02-0.06c-2.68-8.63-8.86-10.93-13.56-11.34
			c-0.62-0.05-1.26-0.08-1.91-0.08l-3.6,0c-8.51,0-13.99,3.9-16.28,11.6l-1.65,5.49l-1.98-5.96c-2.15-6.56-6.91-10.49-13.41-11.06
			c-0.53-0.05-1.09-0.07-1.64-0.07l-5.06,0c-4.56,0-8.43,1.53-11.14,4.14c-4.46-2.16-9.36-3.49-14.67-3.96c0,0,0,0,0,0
			c-1.41-0.12-2.87-0.19-4.33-0.19l-1.95,0c-6.93,0-13.23,1.37-18.84,4.06c-2.26-2.25-5.28-3.61-8.82-3.96L96.03,21.01z
			 M87.36,89.11c-1.66,5.55-3.99,8.38-9.45,8.38l-7.3,0c-0.56,0-1.09-0.02-1.59-0.07c-4.82-0.42-7.04-2.89-8.54-7.92l-5.55-18.5
			l-6.04,18.11c-1.95,5.84-4.28,8.38-9.45,8.38l-6.72,0c-0.39,0-0.77-0.02-1.14-0.05c-5.23-0.46-8.22-4.1-9.67-9.01L8.57,43.92
			c-1.27-4.19-1.66-6.33-1.66-8.38c0-5.06,3.41-8.18,8.96-8.18l5.06,0c0.37,0,0.73,0.02,1.08,0.05c3.89,0.34,6.54,2.56,7.88,6.67
			l8.38,25.22l7.5-24.93c1.36-4.58,3.99-7.01,10.13-7.01l3.6,0c0.47,0,0.92,0.02,1.35,0.06c4.53,0.4,6.75,2.86,8,6.86l7.5,25.03
			l6.72-23.66c1.36-4.97,4.29-8.28,10.13-8.28l1.27,0c0.36,0,0.72,0.02,1.06,0.04l0.09,0.01c4.71,0.43,7.23,3.52,7.23,8.13
			c0,1.95-0.39,3.99-1.46,7.4L87.36,89.11z M151.1,87.65c-7.01,6.91-15.68,9.84-25.13,9.84l-1.95,0c-1.27,0-2.53-0.05-3.77-0.16
			c-7.98-0.7-15.28-3.69-21.35-9.67c-1.19-1.19-2.26-2.48-3.22-3.86l11.83-38.95c1.26-4,1.75-6.61,1.75-9.29
			c0-1.78-0.25-3.45-0.74-5c4.79-2.19,10.02-3.18,15.51-3.18l1.95,0c1.27,0,2.53,0.05,3.77,0.16c7.98,0.7,15.28,3.69,21.35,9.67
			c6.23,6.23,9.45,15.29,9.45,24.83l0,0.78C160.55,72.36,157.33,81.41,151.1,87.65z M241.62,42.95L227.6,89.11
			c-1.66,5.55-3.99,8.38-9.45,8.38l-7.3,0c-0.56,0-1.09-0.02-1.59-0.07c-4.82-0.42-7.04-2.89-8.54-7.92l-5.55-18.5l-6.04,18.11
			c-1.95,5.84-4.28,8.38-9.45,8.38h-6.72c-0.39,0-0.77-0.02-1.14-0.05c-5.23-0.46-8.22-4.1-9.67-9.01l-1.01-3.37
			c3.78-6.35,5.81-13.99,5.81-22.25l0-0.78c0-11.64-4.02-22.07-11.33-29.37c-0.01-0.01-0.02-0.02-0.03-0.03
			c-1.5-1.48-3.09-2.81-4.74-4.01c1.41-0.81,3.18-1.25,5.26-1.25l5.06,0c0.37,0,0.73,0.02,1.08,0.05c3.89,0.34,6.54,2.56,7.88,6.67
			l8.38,25.22l7.5-24.93c1.36-4.58,3.99-7.01,10.13-7.01h3.6c0.47,0,0.92,0.02,1.35,0.06c4.53,0.4,6.75,2.86,8,6.86l7.5,25.03
			l6.72-23.66c1.36-4.97,4.28-8.28,10.13-8.28l1.27,0c0.38,0,0.76,0.02,1.12,0.05c4.74,0.41,7.26,3.52,7.26,8.13
			C243.08,37.49,242.69,39.54,241.62,42.95z M135.71,60.57c0-4.67-0.58-8.76-2.53-11.49c-1.61-2.29-4.12-3.4-6.93-3.65
			c-0.41-0.04-0.83-0.05-1.25-0.05c-3.31,0-6.33,0.97-8.18,3.7c-1.85,2.73-2.53,6.82-2.53,11.49l0,3.7c0,4.67,0.58,8.76,2.53,11.49
			c1.61,2.29,4.12,3.4,6.93,3.65c0.41,0.04,0.83,0.05,1.25,0.05c3.31,0,6.33-1.07,8.18-3.7c1.95-2.73,2.53-6.82,2.53-11.49
			L135.71,60.57z M127.96,72.04c-0.01,0.01-0.02,0.02-0.03,0.04c-0.57,0.81-1.91,0.98-2.93,0.98c-0.24,0-0.47-0.01-0.69-0.03
			c-1.67-0.15-2.1-0.75-2.24-0.95c-0.01-0.01-0.02-0.02-0.03-0.04c-0.5-0.7-1.34-2.64-1.34-7.76l0-3.7c0-5.22,1-7.26,1.43-7.89
			c0.4-0.59,1.37-0.89,2.87-0.89c0.24,0,0.47,0.01,0.69,0.03c1.67,0.15,2.1,0.75,2.24,0.95c0.01,0.01,0.02,0.02,0.03,0.04
			c0.5,0.7,1.34,2.64,1.34,7.76l0,3.7C129.3,69.4,128.46,71.34,127.96,72.04z"/>
	</g>
	<g>
		<path class="st1" d="M68.55,112.8c1.24,0,2.08,0.86,2.08,2.1c0,1.24-0.84,2.1-2.08,2.1h-3.16v9.03c0,2.21-0.77,3.02-2.6,3.02
			h-0.47c-1.83,0-2.6-0.81-2.6-3.02V117h-3.16c-1.24,0-2.08-0.86-2.08-2.1c0-1.24,0.83-2.1,2.08-2.1H68.55z"/>
		<path class="st1" d="M78.24,115.82c0-2.21,0.77-3.02,2.6-3.02h0.47c1.83,0,2.6,0.81,2.6,3.02v10.2c0,2.21-0.77,3.02-2.6,3.02
			h-0.47c-1.83,0-2.6-0.81-2.6-3.02V115.82z"/>
		<path class="st1" d="M99.91,129.05c-2.19,0-4.22-0.68-5.8-2.35c-1.44-1.54-2.05-3.45-2.05-5.69v-0.18c0-2.19,0.59-4.13,2.05-5.69
			c1.56-1.65,3.61-2.35,5.8-2.35h0.47c4.15,0,5.96,2.48,5.96,4.42c0,1.44-0.84,2.28-2.1,2.28c-1.31,0-1.74-0.52-2.19-1.33
			c-0.5-0.88-1.15-1.2-2.1-1.2c-0.77,0-1.47,0.25-1.92,0.86c-0.45,0.61-0.59,1.6-0.59,2.66v0.86c0,1.11,0.18,2.08,0.59,2.66
			c0.47,0.68,1.13,0.86,1.9,0.86c0.97,0,1.63-0.27,2.1-1.2c0.41-0.79,0.9-1.33,2.19-1.33s2.1,0.88,2.1,2.28
			c0,1.99-1.78,4.42-5.94,4.42H99.91z"/>
		<path class="st1" d="M128.44,125.51c0.47,0.84,0.77,1.42,0.77,2.05c0,0.65-0.32,1.49-1.9,1.49h-1.4c-1.42,0-1.81-0.23-2.46-1.4
			l-2.05-3.72l-1.04,1.33v0.77c0,2.21-0.77,3.02-2.6,3.02h-0.47c-1.83,0-2.6-0.81-2.6-3.02v-10.2c0-2.21,0.77-3.02,2.6-3.02h0.47
			c1.83,0,2.6,0.81,2.6,3.02v4.04l4.36-6.05c0.52-0.72,1.13-1.02,2.12-1.02h0.43c1.49,0,2.1,0.56,2.1,1.42c0,0.5-0.2,1.02-0.63,1.63
			l-3.25,4.49L128.44,125.51z"/>
		<path class="st1" d="M147.83,124.88c1.24,0,2.08,0.86,2.08,2.1c0,1.24-0.84,2.08-2.08,2.08h-7.97c-1.83,0-2.6-0.81-2.6-3.02v-10.2
			c0-2.21,0.77-3.02,2.6-3.02h7.97c1.24,0,2.08,0.84,2.08,2.08c0,1.24-0.84,2.1-2.08,2.1h-4.9v2.19h1.96c1.06,0,1.76,0.7,1.76,1.76
			c0,1.06-0.7,1.78-1.76,1.78h-1.96v2.17H147.83z"/>
		<path class="st1" d="M171.31,112.8c1.24,0,2.08,0.86,2.08,2.1c0,1.24-0.83,2.1-2.08,2.1h-3.16v9.03c0,2.21-0.77,3.02-2.6,3.02
			h-0.47c-1.83,0-2.6-0.81-2.6-3.02V117h-3.16c-1.24,0-2.08-0.86-2.08-2.1c0-1.24,0.84-2.1,2.08-2.1H171.31z"/>
		<path class="st1" d="M186.8,129.05c-3.75,0-6.34-1.74-6.34-3.79c0-1.02,0.77-1.78,2.08-1.78c1.87,0,2.1,1.76,5.51,1.76
			c1.11,0,1.83-0.23,1.83-0.88c0-0.61-0.63-0.9-1.83-0.99c-1.31-0.09-2.69-0.32-4.06-0.79c-1.83-0.63-3.43-1.96-3.43-4.42
			c0-2.6,2.01-5.35,6.36-5.35h2.1c3.2,0,5.51,1.42,5.51,3.18c0,0.99-0.74,1.9-2.26,1.9c-2.01,0-2.32-1.26-4.58-1.26
			c-0.95,0-1.62,0.27-1.62,0.93c0,0.7,0.77,0.93,1.78,1.02c1.38,0.14,2.82,0.36,4.18,0.81c1.87,0.63,3.5,1.78,3.5,4.33
			c0,2.96-2.28,5.35-6.43,5.35H186.8z"/>
	</g>
</g>
</svg>
