<?xml version="1.0" encoding="utf-8"?>
<!-- Generator: Adobe Illustrator 27.4.0, SVG Export Plug-In . SVG Version: 6.00 Build 0)  -->
<svg version="1.1" id="Layer_1" xmlns="http://www.w3.org/2000/svg" xmlns:xlink="http://www.w3.org/1999/xlink" x="0px" y="0px"
	 viewBox="0 0 300 75" style="enable-background:new 0 0 300 75;" xml:space="preserve">
<style type="text/css">
	.st0{fill:url(#SVGID_1_);}
	.st1{fill:#414042;}
</style>
<g>
	
		<linearGradient id="SVGID_1_" gradientUnits="userSpaceOnUse" x1="218.3478" y1="-9.8834" x2="87.8806" y2="81.4707" gradientTransform="matrix(0.9962 0.0872 -0.0872 0.9962 3.632 -24.8031)">
		<stop  offset="0" style="stop-color:#FD6058"/>
		<stop  offset="0.5" style="stop-color:#FD3B5E"/>
		<stop  offset="1" style="stop-color:#930EA3"/>
	</linearGradient>
	<path class="st0" d="M130.37,0.68c-0.35-0.03-0.71-0.04-1.07-0.04l-0.87,0c-5.62,0-9.58,3.15-11.16,8.88l-0.48,1.7l-0.81-2.71
		c0-0.01-0.01-0.03-0.01-0.04c-1.84-5.91-6.06-7.48-9.28-7.76c-0.42-0.04-0.86-0.06-1.31-0.06l-2.47,0c-5.82,0-9.57,2.67-11.14,7.94
		l-1.13,3.76l-1.35-4.08c-1.47-4.49-4.73-7.18-9.18-7.57c-0.37-0.03-0.74-0.05-1.12-0.05l-3.47,0c-6.2,0-10.53,4.11-10.53,9.99
		c0,1.92,0.36,3.82,1.32,7l9.13,30.46c1.64,5.53,5.35,8.83,10.44,9.28c0.38,0.03,0.77,0.05,1.16,0.05h4.6c2.9,0,5.2-0.83,7.04-2.54
		c1.39-1.29,2.44-2.99,3.34-5.47c1.08,3.3,3.3,7.4,9.48,7.94c0.47,0.04,0.96,0.06,1.47,0.06l5,0c2.95,0,5.38-0.89,7.23-2.65
		c1.92-1.82,2.85-4.28,3.39-6.04c0.21,0.23,0.42,0.45,0.64,0.67c0.01,0.01,0.01,0.01,0.02,0.02c4.69,4.63,10.52,7.28,17.32,7.87
		c0.97,0.08,1.96,0.13,2.97,0.13l1.33,0c8.08,0,14.9-2.69,20.28-8c0.01-0.01,0.01-0.01,0.02-0.02c0.17-0.17,0.34-0.36,0.51-0.54
		c1.75,5.07,5.34,8.08,10.19,8.5c0.38,0.03,0.77,0.05,1.16,0.05l4.6,0c2.9,0,5.2-0.83,7.04-2.54c1.39-1.29,2.44-2.99,3.34-5.47
		c1.08,3.3,3.3,7.4,9.48,7.94c0.47,0.04,0.96,0.06,1.47,0.06h5c2.95,0,5.38-0.89,7.23-2.65c1.98-1.88,2.91-4.44,3.44-6.21
		l9.59-31.57c0.86-2.74,1.2-4.53,1.2-6.36c0-2.65-0.81-4.98-2.35-6.75c-1.61-1.85-3.91-2.96-6.63-3.2l0,0
		c-0.37-0.03-0.76-0.05-1.15-0.05l-0.87,0c-5.62,0-9.59,3.15-11.16,8.88l-0.48,1.7l-0.81-2.71c0-0.01-0.01-0.03-0.01-0.04
		c-1.84-5.91-6.06-7.48-9.28-7.76c-0.42-0.04-0.86-0.06-1.31-0.06l-2.47,0c-5.82,0-9.57,2.67-11.14,7.94l-1.13,3.76l-1.35-4.08
		c-1.47-4.49-4.73-7.18-9.18-7.57c-0.37-0.03-0.74-0.05-1.12-0.05l-3.47,0c-3.12,0-5.77,1.05-7.63,2.84
		c-3.05-1.48-6.41-2.39-10.04-2.71c0,0,0,0,0,0c-0.97-0.08-1.96-0.13-2.97-0.13l-1.33,0c-4.75,0-9.06,0.94-12.9,2.78
		c-1.55-1.54-3.62-2.47-6.04-2.71L130.37,0.68z M124.43,47.3c-1.13,3.8-2.73,5.73-6.47,5.73l-5,0c-0.38,0-0.75-0.01-1.09-0.04
		c-3.3-0.29-4.82-1.98-5.84-5.42l-3.8-12.67L98.1,47.3c-1.33,4-2.93,5.73-6.47,5.73l-4.6,0c-0.27,0-0.53-0.01-0.78-0.03
		c-3.58-0.31-5.62-2.8-6.62-6.17L70.5,16.36c-0.87-2.87-1.13-4.33-1.13-5.73c0-3.47,2.33-5.6,6.13-5.6l3.47,0
		c0.25,0,0.5,0.01,0.74,0.03c2.66,0.23,4.48,1.76,5.39,4.57l5.73,17.27l5.13-17.07c0.93-3.13,2.73-4.8,6.93-4.8l2.47,0
		c0.32,0,0.63,0.01,0.93,0.04c3.1,0.27,4.62,1.95,5.47,4.69l5.13,17.13l4.6-16.2c0.93-3.4,2.93-5.67,6.93-5.67l0.87,0
		c0.25,0,0.49,0.01,0.73,0.03l0.06,0.01c3.23,0.29,4.95,2.41,4.95,5.56c0,1.33-0.27,2.73-1,5.07L124.43,47.3z M168.07,46.3
		c-4.8,4.73-10.73,6.73-17.2,6.73l-1.33,0c-0.87,0-1.73-0.04-2.58-0.11c-5.46-0.48-10.46-2.53-14.62-6.62
		c-0.81-0.81-1.55-1.7-2.21-2.64l8.1-26.66c0.86-2.74,1.2-4.53,1.2-6.36c0-1.22-0.17-2.36-0.51-3.42c3.28-1.5,6.86-2.18,10.62-2.18
		l1.33,0c0.87,0,1.73,0.04,2.58,0.11c5.46,0.48,10.46,2.53,14.62,6.62c4.27,4.27,6.47,10.47,6.47,17l0,0.53
		C174.53,35.83,172.33,42.03,168.07,46.3z M230.03,15.7l-9.6,31.6c-1.13,3.8-2.73,5.73-6.47,5.73l-5,0c-0.38,0-0.75-0.01-1.09-0.04
		c-3.3-0.29-4.82-1.98-5.84-5.42l-3.8-12.67l-4.13,12.4c-1.33,4-2.93,5.73-6.47,5.73l-4.6,0c-0.27,0-0.53-0.01-0.78-0.03
		c-3.58-0.31-5.62-2.8-6.62-6.17l-0.69-2.3c2.59-4.35,3.98-9.58,3.98-15.23l0-0.53c0-7.97-2.75-15.11-7.75-20.11
		c-0.01-0.01-0.01-0.01-0.02-0.02c-1.03-1.01-2.11-1.93-3.25-2.75c0.96-0.56,2.18-0.86,3.6-0.86l3.47,0c0.25,0,0.5,0.01,0.74,0.03
		c2.66,0.23,4.48,1.76,5.39,4.57l5.73,17.27l5.13-17.07c0.93-3.13,2.73-4.8,6.93-4.8l2.47,0c0.32,0,0.63,0.01,0.93,0.04
		c3.1,0.27,4.62,1.95,5.47,4.69l5.13,17.13l4.6-16.2c0.93-3.4,2.93-5.67,6.93-5.67l0.87,0c0.26,0,0.52,0.01,0.76,0.03
		c3.24,0.28,4.97,2.41,4.97,5.57C231.03,11.96,230.77,13.36,230.03,15.7z M157.53,27.76c0-3.2-0.4-6-1.73-7.87
		c-1.1-1.57-2.82-2.33-4.74-2.5c-0.28-0.02-0.57-0.04-0.86-0.04c-2.27,0-4.33,0.67-5.6,2.53c-1.27,1.87-1.73,4.67-1.73,7.87l0,2.53
		c0,3.2,0.4,6,1.73,7.87c1.1,1.57,2.82,2.33,4.74,2.5c0.28,0.02,0.57,0.04,0.86,0.04c2.27,0,4.33-0.73,5.6-2.53
		c1.33-1.87,1.73-4.67,1.73-7.87V27.76z M152.23,35.61c-0.01,0.01-0.01,0.02-0.02,0.03c-0.39,0.55-1.31,0.67-2.01,0.67
		c-0.16,0-0.32-0.01-0.48-0.02c-1.15-0.1-1.44-0.51-1.53-0.65c-0.01-0.01-0.01-0.02-0.02-0.03c-0.34-0.48-0.92-1.81-0.92-5.31v-2.53
		c0-3.58,0.68-4.97,0.98-5.4c0.27-0.4,0.93-0.61,1.97-0.61c0.16,0,0.32,0.01,0.48,0.02c1.15,0.1,1.44,0.51,1.53,0.65
		c0.01,0.01,0.01,0.02,0.02,0.03c0.34,0.48,0.92,1.8,0.92,5.31l0,2.53C153.14,33.8,152.57,35.13,152.23,35.61z"/>
</g>
<g>
	<path class="st1" d="M111.56,63.51c0.85,0,1.42,0.59,1.42,1.44s-0.57,1.44-1.42,1.44h-2.16v6.18c0,1.51-0.53,2.07-1.78,2.07h-0.32
		c-1.25,0-1.78-0.56-1.78-2.07v-6.18h-2.16c-0.85,0-1.42-0.59-1.42-1.44s0.57-1.44,1.42-1.44H111.56z"/>
	<path class="st1" d="M118.19,65.58c0-1.51,0.53-2.07,1.78-2.07h0.32c1.25,0,1.78,0.56,1.78,2.07v6.98c0,1.51-0.53,2.07-1.78,2.07
		h-0.32c-1.25,0-1.78-0.56-1.78-2.07V65.58z"/>
	<path class="st1" d="M133.03,74.64c-1.5,0-2.89-0.46-3.97-1.61c-0.99-1.05-1.41-2.36-1.41-3.89v-0.12c0-1.5,0.4-2.83,1.41-3.89
		c1.07-1.13,2.47-1.61,3.97-1.61h0.32c2.84,0,4.08,1.7,4.08,3.03c0,0.99-0.57,1.56-1.44,1.56c-0.9,0-1.19-0.36-1.5-0.91
		c-0.34-0.6-0.79-0.82-1.44-0.82c-0.53,0-1,0.17-1.31,0.59c-0.31,0.42-0.4,1.1-0.4,1.82v0.59c0,0.76,0.12,1.42,0.4,1.82
		c0.32,0.46,0.77,0.59,1.3,0.59c0.66,0,1.11-0.19,1.44-0.82c0.28-0.54,0.62-0.91,1.5-0.91c0.88,0,1.44,0.6,1.44,1.56
		c0,1.36-1.22,3.03-4.06,3.03H133.03z"/>
	<path class="st1" d="M152.56,72.21c0.32,0.57,0.53,0.97,0.53,1.41c0,0.45-0.22,1.02-1.3,1.02h-0.96c-0.97,0-1.24-0.15-1.68-0.96
		l-1.41-2.55l-0.71,0.91v0.53c0,1.51-0.53,2.07-1.78,2.07h-0.32c-1.25,0-1.78-0.56-1.78-2.07v-6.98c0-1.51,0.53-2.07,1.78-2.07h0.32
		c1.25,0,1.78,0.56,1.78,2.07v2.77l2.98-4.14c0.36-0.49,0.77-0.7,1.45-0.7h0.29c1.02,0,1.44,0.39,1.44,0.97
		c0,0.34-0.14,0.7-0.43,1.11l-2.22,3.07L152.56,72.21z"/>
	<path class="st1" d="M165.83,71.78c0.85,0,1.42,0.59,1.42,1.44c0,0.85-0.57,1.42-1.42,1.42h-5.45c-1.25,0-1.78-0.56-1.78-2.07
		v-6.98c0-1.51,0.53-2.07,1.78-2.07h5.45c0.85,0,1.42,0.57,1.42,1.42c0,0.85-0.57,1.44-1.42,1.44h-3.35v1.5h1.34
		c0.73,0,1.21,0.48,1.21,1.21c0,0.73-0.48,1.22-1.21,1.22h-1.34v1.48H165.83z"/>
	<path class="st1" d="M181.9,63.51c0.85,0,1.42,0.59,1.42,1.44s-0.57,1.44-1.42,1.44h-2.16v6.18c0,1.51-0.53,2.07-1.78,2.07h-0.32
		c-1.25,0-1.78-0.56-1.78-2.07v-6.18h-2.16c-0.85,0-1.42-0.59-1.42-1.44s0.57-1.44,1.42-1.44H181.9z"/>
	<path class="st1" d="M192.5,74.64c-2.56,0-4.34-1.19-4.34-2.6c0-0.7,0.53-1.22,1.42-1.22c1.28,0,1.44,1.21,3.77,1.21
		c0.76,0,1.25-0.15,1.25-0.6c0-0.42-0.43-0.62-1.25-0.68c-0.9-0.06-1.84-0.22-2.78-0.54c-1.25-0.43-2.35-1.34-2.35-3.03
		c0-1.78,1.37-3.66,4.36-3.66h1.44c2.19,0,3.77,0.97,3.77,2.18c0,0.68-0.51,1.3-1.55,1.3c-1.38,0-1.59-0.87-3.14-0.87
		c-0.65,0-1.11,0.19-1.11,0.63c0,0.48,0.53,0.63,1.22,0.69c0.94,0.09,1.93,0.25,2.86,0.56c1.28,0.43,2.4,1.22,2.4,2.97
		c0,2.02-1.56,3.66-4.4,3.66H192.5z"/>
</g>
</svg>
