<?xml version="1.0" encoding="utf-8"?>
<!-- Generator: Adobe Illustrator 27.4.0, SVG Export Plug-In . SVG Version: 6.00 Build 0)  -->
<svg version="1.1" id="Layer_1" xmlns="http://www.w3.org/2000/svg" xmlns:xlink="http://www.w3.org/1999/xlink" x="0px" y="0px"
	 viewBox="0 0 350 75" style="enable-background:new 0 0 350 75;" xml:space="preserve">
<style type="text/css">
	.st0{fill:url(#SVGID_1_);}
	.st1{fill:#414042;}
</style>
<g>
	<g>
		
			<linearGradient id="SVGID_1_" gradientUnits="userSpaceOnUse" x1="242.9582" y1="-9.8466" x2="112.8367" y2="81.2654" gradientTransform="matrix(0.9962 0.0872 -0.0872 0.9962 3.7271 -26.982)">
			<stop  offset="0" style="stop-color:#FD6058"/>
			<stop  offset="0.5" style="stop-color:#FD3B5E"/>
			<stop  offset="1" style="stop-color:#930EA3"/>
		</linearGradient>
		<path class="st0" d="M155.22,0.64c-0.35-0.03-0.71-0.04-1.07-0.04l-0.86,0c-5.61,0-9.56,3.14-11.13,8.85l-0.48,1.7l-0.81-2.71
			c0-0.01-0.01-0.03-0.01-0.04c-1.83-5.89-6.05-7.46-9.26-7.74c-0.42-0.04-0.86-0.06-1.31-0.06l-2.46,0
			c-5.81,0-9.55,2.66-11.11,7.92l-1.13,3.75l-1.35-4.07c-1.47-4.48-4.72-7.16-9.16-7.55c-0.36-0.03-0.74-0.05-1.12-0.05l-3.46,0
			C94.32,0.6,90,4.7,90,10.56c0,1.92,0.36,3.81,1.32,6.99l9.11,30.38c1.64,5.52,5.34,8.81,10.42,9.26c0.38,0.03,0.77,0.05,1.16,0.05
			h4.59c2.89,0,5.18-0.83,7.02-2.53c1.39-1.28,2.43-2.99,3.33-5.45c1.08,3.3,3.29,7.38,9.46,7.92c0.47,0.04,0.96,0.06,1.47,0.06
			l4.99,0c2.94,0,5.37-0.89,7.21-2.64c1.91-1.82,2.84-4.27,3.38-6.02c0.21,0.23,0.42,0.45,0.64,0.67c0.01,0.01,0.01,0.01,0.02,0.02
			c4.68,4.62,10.49,7.26,17.27,7.85c0.96,0.08,1.96,0.13,2.96,0.13l1.33,0c8.06,0,14.86-2.68,20.23-7.98
			c0.01-0.01,0.01-0.01,0.02-0.02c0.17-0.17,0.34-0.36,0.51-0.53c1.74,5.05,5.33,8.06,10.17,8.48c0.38,0.03,0.77,0.05,1.16,0.05
			l4.59,0c2.89,0,5.18-0.83,7.02-2.53c1.39-1.28,2.43-2.99,3.33-5.45c1.08,3.3,3.3,7.38,9.46,7.92c0.47,0.04,0.96,0.06,1.47,0.06
			h4.99c2.94,0,5.37-0.89,7.21-2.64c1.98-1.88,2.9-4.43,3.43-6.19l9.57-31.49c0.86-2.73,1.19-4.51,1.19-6.35
			c0-2.64-0.81-4.97-2.34-6.73c-1.61-1.85-3.9-2.95-6.61-3.19l0,0c-0.37-0.03-0.76-0.05-1.14-0.05l-0.86,0
			c-5.61,0-9.56,3.14-11.13,8.85l-0.48,1.7l-0.81-2.71c0-0.01-0.01-0.03-0.01-0.04c-1.83-5.89-6.05-7.46-9.26-7.74
			c-0.42-0.04-0.86-0.06-1.31-0.06l-2.46,0c-5.81,0-9.55,2.66-11.11,7.92l-1.13,3.75l-1.35-4.07c-1.47-4.48-4.72-7.16-9.16-7.55
			c-0.36-0.03-0.74-0.05-1.12-0.05l-3.46,0c-3.12,0-5.75,1.04-7.61,2.83c-3.05-1.48-6.39-2.38-10.02-2.7c0,0,0,0,0,0
			c-0.96-0.08-1.96-0.13-2.96-0.13l-1.33,0c-4.73,0-9.03,0.93-12.86,2.77c-1.54-1.53-3.61-2.46-6.02-2.71L155.22,0.64z M149.3,47.13
			c-1.13,3.79-2.73,5.72-6.45,5.72l-4.99,0c-0.38,0-0.74-0.01-1.09-0.04c-3.29-0.29-4.8-1.97-5.83-5.41l-3.79-12.63l-4.12,12.37
			c-1.33,3.99-2.93,5.72-6.45,5.72l-4.59,0c-0.27,0-0.53-0.01-0.78-0.03c-3.57-0.31-5.61-2.8-6.6-6.15l-9.11-30.39
			c-0.86-2.86-1.13-4.32-1.13-5.72c0-3.46,2.33-5.58,6.12-5.58l3.46,0c0.25,0,0.5,0.01,0.74,0.03c2.65,0.23,4.46,1.75,5.38,4.56
			l5.72,17.22l5.12-17.02c0.93-3.12,2.73-4.79,6.91-4.79l2.46,0c0.32,0,0.63,0.01,0.92,0.04c3.09,0.27,4.61,1.95,5.46,4.68
			l5.12,17.09l4.59-16.16c0.93-3.39,2.93-5.65,6.91-5.65l0.86,0c0.25,0,0.49,0.01,0.72,0.03l0.06,0.01
			c3.22,0.29,4.93,2.41,4.93,5.55c0,1.33-0.27,2.73-1,5.05L149.3,47.13z M192.82,46.13c-4.79,4.72-10.7,6.72-17.15,6.72l-1.33,0
			c-0.87,0-1.73-0.04-2.58-0.11c-5.45-0.48-10.44-2.52-14.58-6.6c-0.81-0.81-1.54-1.69-2.2-2.63l8.08-26.59
			c0.86-2.73,1.19-4.51,1.19-6.35c0-1.21-0.17-2.36-0.5-3.41c3.27-1.49,6.84-2.17,10.59-2.17l1.33,0c0.87,0,1.73,0.04,2.58,0.11
			c5.45,0.48,10.44,2.52,14.58,6.6c4.26,4.26,6.45,10.44,6.45,16.95l0,0.53C199.27,35.7,197.07,41.88,192.82,46.13z M254.62,15.62
			l-9.57,31.52c-1.13,3.79-2.73,5.72-6.45,5.72l-4.99,0c-0.38,0-0.74-0.01-1.09-0.04c-3.29-0.29-4.8-1.97-5.83-5.41l-3.79-12.63
			l-4.12,12.37c-1.33,3.99-2.93,5.72-6.45,5.72l-4.59,0c-0.27,0-0.53-0.01-0.78-0.03c-3.57-0.31-5.61-2.8-6.6-6.15l-0.69-2.3
			c2.58-4.34,3.97-9.55,3.97-15.19l0-0.53c0-7.94-2.75-15.07-7.73-20.05c-0.01-0.01-0.01-0.01-0.02-0.02
			c-1.02-1.01-2.11-1.92-3.24-2.74c0.96-0.55,2.17-0.86,3.59-0.86l3.46,0c0.25,0,0.5,0.01,0.74,0.03c2.65,0.23,4.46,1.75,5.38,4.56
			l5.72,17.22l5.12-17.02c0.93-3.12,2.73-4.79,6.91-4.79l2.46,0c0.32,0,0.63,0.01,0.92,0.04c3.09,0.27,4.61,1.95,5.46,4.68
			l5.12,17.09l4.59-16.16c0.93-3.39,2.93-5.65,6.91-5.65l0.86,0c0.26,0,0.52,0.01,0.76,0.03c3.23,0.28,4.96,2.4,4.96,5.55
			C255.62,11.89,255.35,13.29,254.62,15.62z M182.31,27.65c0-3.19-0.4-5.98-1.73-7.85c-1.1-1.57-2.81-2.32-4.73-2.49
			c-0.28-0.02-0.57-0.04-0.86-0.04c-2.26,0-4.32,0.66-5.59,2.53s-1.73,4.65-1.73,7.85l0,2.53c0,3.19,0.4,5.98,1.73,7.85
			c1.1,1.57,2.81,2.32,4.73,2.49c0.28,0.02,0.57,0.04,0.86,0.04c2.26,0,4.32-0.73,5.58-2.53c1.33-1.86,1.73-4.65,1.73-7.85V27.65z
			 M177.02,35.48c-0.01,0.01-0.01,0.02-0.02,0.03c-0.39,0.55-1.3,0.67-2,0.67c-0.16,0-0.32-0.01-0.47-0.02
			c-1.14-0.1-1.43-0.51-1.53-0.65c-0.01-0.01-0.01-0.02-0.02-0.03c-0.34-0.48-0.91-1.8-0.91-5.3v-2.53c0-3.57,0.68-4.95,0.97-5.39
			c0.27-0.4,0.93-0.61,1.96-0.61c0.16,0,0.32,0.01,0.47,0.02c1.14,0.1,1.43,0.51,1.53,0.65c0.01,0.01,0.01,0.02,0.02,0.03
			c0.34,0.48,0.91,1.8,0.91,5.3v2.53C177.93,33.68,177.36,35,177.02,35.48z"/>
	</g>
	<g>
		<path class="st1" d="M136.46,63.31c0.85,0,1.42,0.59,1.42,1.43s-0.57,1.43-1.42,1.43h-2.16v6.16c0,1.51-0.52,2.06-1.77,2.06h-0.32
			c-1.25,0-1.77-0.55-1.77-2.06v-6.16h-2.16c-0.85,0-1.42-0.59-1.42-1.43s0.57-1.43,1.42-1.43H136.46z"/>
		<path class="st1" d="M143.08,65.37c0-1.51,0.52-2.06,1.77-2.06h0.32c1.25,0,1.77,0.55,1.77,2.06v6.97c0,1.51-0.52,2.06-1.77,2.06
			h-0.32c-1.25,0-1.77-0.55-1.77-2.06V65.37z"/>
		<path class="st1" d="M157.87,74.4c-1.49,0-2.88-0.46-3.96-1.6c-0.99-1.05-1.4-2.36-1.4-3.88v-0.12c0-1.49,0.4-2.82,1.4-3.88
			c1.06-1.12,2.47-1.6,3.96-1.6h0.32c2.84,0,4.07,1.7,4.07,3.02c0,0.99-0.57,1.56-1.43,1.56c-0.89,0-1.19-0.35-1.49-0.91
			c-0.34-0.6-0.79-0.82-1.43-0.82c-0.52,0-1,0.17-1.31,0.59c-0.31,0.42-0.4,1.09-0.4,1.82v0.59c0,0.75,0.12,1.42,0.4,1.82
			c0.32,0.46,0.77,0.59,1.29,0.59c0.66,0,1.11-0.18,1.43-0.82c0.28-0.54,0.62-0.91,1.49-0.91s1.43,0.6,1.43,1.56
			c0,1.36-1.22,3.02-4.05,3.02H157.87z"/>
		<path class="st1" d="M177.35,71.98c0.32,0.57,0.52,0.97,0.52,1.4c0,0.45-0.22,1.02-1.29,1.02h-0.96c-0.97,0-1.23-0.15-1.68-0.96
			l-1.4-2.54l-0.71,0.91v0.52c0,1.51-0.52,2.06-1.77,2.06h-0.32c-1.25,0-1.77-0.55-1.77-2.06v-6.97c0-1.51,0.52-2.06,1.77-2.06h0.32
			c1.25,0,1.77,0.55,1.77,2.06v2.76l2.97-4.13c0.35-0.49,0.77-0.69,1.45-0.69h0.29c1.02,0,1.43,0.39,1.43,0.97
			c0,0.34-0.14,0.69-0.43,1.11l-2.22,3.07L177.35,71.98z"/>
		<path class="st1" d="M190.59,71.55c0.85,0,1.42,0.59,1.42,1.43s-0.57,1.42-1.42,1.42h-5.44c-1.25,0-1.77-0.55-1.77-2.06v-6.97
			c0-1.51,0.52-2.06,1.77-2.06h5.44c0.85,0,1.42,0.57,1.42,1.42c0,0.85-0.57,1.43-1.42,1.43h-3.34v1.49h1.34
			c0.72,0,1.2,0.48,1.2,1.2c0,0.72-0.48,1.22-1.2,1.22h-1.34v1.48H190.59z"/>
		<path class="st1" d="M206.62,63.31c0.85,0,1.42,0.59,1.42,1.43s-0.57,1.43-1.42,1.43h-2.16v6.16c0,1.51-0.52,2.06-1.77,2.06h-0.32
			c-1.25,0-1.77-0.55-1.77-2.06v-6.16h-2.16c-0.85,0-1.42-0.59-1.42-1.43s0.57-1.43,1.42-1.43H206.62z"/>
		<path class="st1" d="M217.19,74.4c-2.56,0-4.33-1.19-4.33-2.59c0-0.69,0.52-1.22,1.42-1.22c1.28,0,1.43,1.2,3.76,1.2
			c0.76,0,1.25-0.15,1.25-0.6c0-0.42-0.43-0.62-1.25-0.68c-0.89-0.06-1.83-0.22-2.77-0.54c-1.25-0.43-2.34-1.34-2.34-3.02
			c0-1.77,1.37-3.65,4.35-3.65h1.43c2.19,0,3.76,0.97,3.76,2.17c0,0.68-0.51,1.29-1.54,1.29c-1.37,0-1.59-0.86-3.13-0.86
			c-0.65,0-1.11,0.19-1.11,0.63c0,0.48,0.52,0.63,1.22,0.69c0.94,0.09,1.93,0.25,2.85,0.55c1.28,0.43,2.39,1.22,2.39,2.96
			c0,2.02-1.56,3.65-4.39,3.65H217.19z"/>
	</g>
</g>
</svg>
